<svg xmlns="http://www.w3.org/2000/svg" viewBox="0 0 64 64">
<g fill="#00786C">
<rect x="28" y="1" width="12" height="1"/>
<rect x="25" y="2" width="19" height="1"/>
<rect x="22" y="3" width="24" height="1"/>
<rect x="20" y="4" width="28" height="1"/>
<rect x="19" y="5" width="31" height="1"/>
<rect x="17" y="6" width="35" height="1"/>
<rect x="16" y="7" width="38" height="1"/>
<rect x="14" y="8" width="42" height="1"/>
<rect x="13" y="9" width="44" height="1"/>
<rect x="12" y="10" width="46" height="1"/>
<rect x="12" y="11" width="47" height="1"/>
<rect x="11" y="12" width="49" height="1"/>
<rect x="10" y="13" width="50" height="1"/>
<rect x="9" y="14" width="24" height="1"/>
<rect x="35" y="14" width="25" height="1"/>
<rect x="9" y="15" width="20" height="1"/>
<rect x="31" y="15" width="5" height="1"/>
<rect x="40" y="15" width="20" height="1"/>
<rect x="8" y="16" width="18" height="1"/>
<rect x="29" y="16" width="9" height="1"/>
<rect x="42" y="16" width="18" height="1"/>
<rect x="8" y="17" width="17" height="1"/>
<rect x="28" y="17" width="11" height="1"/>
<rect x="44" y="17" width="15" height="1"/>
<rect x="7" y="18" width="17" height="1"/>
<rect x="27" y="18" width="13" height="1"/>
<rect x="48" y="18" width="2" height="1"/>
<rect x="7" y="19" width="16" height="1"/>
<rect x="26" y="19" width="15" height="1"/>
<rect x="6" y="20" width="16" height="1"/>
<rect x="25" y="20" width="17" height="1"/>
<rect x="6" y="21" width="15" height="1"/>
<rect x="24" y="21" width="19" height="1"/>
<rect x="57" y="21" width="3" height="1"/>
<rect x="6" y="22" width="14" height="1"/>
<rect x="23" y="22" width="21" height="1"/>
<rect x="54" y="22" width="6" height="1"/>
<rect x="6" y="23" width="14" height="1"/>
<rect x="22" y="23" width="23" height="1"/>
<rect x="53" y="23" width="7" height="1"/>
<rect x="5" y="24" width="14" height="1"/>
<rect x="21" y="24" width="25" height="1"/>
<rect x="52" y="24" width="8" height="1"/>
<rect x="5" y="25" width="14" height="1"/>
<rect x="21" y="25" width="25" height="1"/>
<rect x="52" y="25" width="5" height="1"/>
<rect x="5" y="26" width="14" height="1"/>
<rect x="21" y="26" width="25" height="1"/>
<rect x="51" y="26" width="5" height="1"/>
<rect x="5" y="27" width="13" height="1"/>
<rect x="21" y="27" width="26" height="1"/>
<rect x="51" y="27" width="5" height="1"/>
<rect x="4" y="28" width="14" height="1"/>
<rect x="21" y="28" width="26" height="1"/>
<rect x="51" y="28" width="5" height="1"/>
<rect x="5" y="29" width="13" height="1"/>
<rect x="21" y="29" width="25" height="1"/>
<rect x="51" y="29" width="4" height="1"/>
<rect x="4" y="30" width="14" height="1"/>
<rect x="23" y="30" width="22" height="1"/>
<rect x="51" y="30" width="5" height="1"/>
<rect x="4" y="31" width="14" height="1"/>
<rect x="27" y="31" width="13" height="1"/>
<rect x="51" y="31" width="5" height="1"/>
<rect x="4" y="32" width="14" height="1"/>
<rect x="31" y="32" width="5" height="1"/>
<rect x="51" y="32" width="5" height="1"/>
<rect x="4" y="33" width="14" height="1"/>
<rect x="32" y="33" width="4" height="1"/>
<rect x="52" y="33" width="5" height="1"/>
<rect x="5" y="34" width="13" height="1"/>
<rect x="31" y="34" width="5" height="1"/>
<rect x="52" y="34" width="8" height="1"/>
<rect x="5" y="35" width="14" height="1"/>
<rect x="31" y="35" width="5" height="1"/>
<rect x="53" y="35" width="7" height="1"/>
<rect x="5" y="36" width="14" height="1"/>
<rect x="30" y="36" width="6" height="1"/>
<rect x="50" y="36" width="2" height="1"/>
<rect x="54" y="36" width="6" height="1"/>
<rect x="5" y="37" width="15" height="1"/>
<rect x="30" y="37" width="6" height="1"/>
<rect x="48" y="37" width="12" height="1"/>
<rect x="5" y="38" width="16" height="1"/>
<rect x="30" y="38" width="5" height="1"/>
<rect x="43" y="38" width="12" height="1"/>
<rect x="57" y="38" width="3" height="1"/>
<rect x="5" y="39" width="22" height="1"/>
<rect x="28" y="39" width="7" height="1"/>
<rect x="41" y="39" width="15" height="1"/>
<rect x="6" y="40" width="29" height="1"/>
<rect x="40" y="40" width="16" height="1"/>
<rect x="6" y="41" width="28" height="1"/>
<rect x="38" y="41" width="18" height="1"/>
<rect x="7" y="42" width="27" height="1"/>
<rect x="35" y="42" width="21" height="1"/>
<rect x="59" y="42" width="1" height="1"/>
<rect x="7" y="43" width="53" height="1"/>
<rect x="8" y="44" width="47" height="1"/>
<rect x="56" y="44" width="4" height="1"/>
<rect x="8" y="45" width="46" height="1"/>
<rect x="56" y="45" width="4" height="1"/>
<rect x="9" y="46" width="46" height="1"/>
<rect x="56" y="46" width="4" height="1"/>
<rect x="9" y="47" width="46" height="1"/>
<rect x="56" y="47" width="2" height="1"/>
<rect x="10" y="48" width="50" height="1"/>
<rect x="10" y="49" width="50" height="1"/>
<rect x="10" y="50" width="46" height="1"/>
<rect x="10" y="51" width="47" height="1"/>
<rect x="58" y="51" width="2" height="1"/>
<rect x="10" y="52" width="50" height="1"/>
<rect x="11" y="53" width="49" height="1"/>
<rect x="12" y="54" width="44" height="1"/>
<rect x="13" y="55" width="43" height="1"/>
<rect x="14" y="56" width="41" height="1"/>
<rect x="15" y="57" width="39" height="1"/>
<rect x="17" y="58" width="35" height="1"/>
<rect x="18" y="59" width="33" height="1"/>
<rect x="20" y="60" width="29" height="1"/>
<rect x="22" y="61" width="25" height="1"/>
<rect x="25" y="62" width="19" height="1"/>
<rect x="28" y="63" width="13" height="1"/>
</g></svg>